<svg width="295" height="146" viewBox="0 0 295 146" fill="none" xmlns="http://www.w3.org/2000/svg">
<g clip-path="url(#clip0_164_3467)">
<path d="M115.216 101.462H106.208L87.8955 49.6914H96.4086L110.663 89.8803L125.016 49.6914H133.529L115.216 101.462Z" fill="#424B52"/>
<path d="M188.665 79.0904H144.813C146.001 88.5933 152.93 95.0276 162.433 95.0276C169.659 95.0276 175.302 91.2662 178.172 85.5248H187.081C183.32 95.8195 174.014 102.649 162.433 102.649C147.486 102.649 136.201 91.2662 136.201 75.5272C136.201 59.887 147.486 48.4044 162.433 48.4044C177.479 48.4044 188.863 60.0848 188.863 75.725C188.863 76.3191 188.863 77.8039 188.665 79.0904ZM162.433 56.1252C152.732 56.1252 145.704 62.8568 144.714 72.6565H180.152C179.261 62.8568 172.233 56.1252 162.433 56.1252Z" fill="#424B52"/>
<path d="M237.564 101.462H227.863L215.589 82.5554L203.413 101.462H193.712L210.837 75.1311L194.207 49.6914H204.007L215.589 67.8061L227.269 49.6914H236.97L220.34 75.1311L237.564 101.462Z" fill="#424B52"/>
<path d="M295.37 75.5274C295.37 91.1673 284.086 102.65 268.941 102.65C253.796 102.65 242.511 91.2664 242.511 75.5274C242.511 59.9862 253.796 48.5036 268.941 48.5036C284.086 48.5036 295.37 59.8871 295.37 75.5274ZM287.055 75.5274C287.055 64.1435 279.73 56.2245 268.941 56.2245C258.25 56.2245 250.826 64.1435 250.826 75.6261C250.826 87.1087 258.25 95.0278 268.941 95.0278C279.73 95.0278 287.055 87.1087 287.055 75.5274Z" fill="#424B52"/>
<path d="M42.7147 100.622V95.4628C38.3122 99.4531 32.8437 101.447 26.31 101.447C18.7424 101.447 12.4665 98.9031 7.48005 93.8121C2.49215 88.7226 0 82.395 0 74.8278C0 67.262 2.49215 60.9344 7.48005 55.8434C12.4665 50.7539 18.7424 48.2083 26.31 48.2083C32.8437 48.2083 38.3122 50.2043 42.7147 54.1927V49.0338H51.588V100.622H42.7147ZM26.5161 93.09C30.092 93.09 33.2903 92.3339 36.1115 90.8199C38.9313 89.308 41.1316 87.2784 42.7147 84.7327V64.9228C41.1316 62.379 38.9313 60.3493 36.1115 58.8357C33.2903 57.3235 30.092 56.5656 26.5161 56.5656C21.4946 56.5656 17.3496 58.3034 14.0836 61.7762C10.8158 65.2501 9.18246 69.6012 9.18246 74.8278C9.18246 80.0558 10.8158 84.4069 14.0836 87.8797C17.3496 91.3536 21.4946 93.09 26.5161 93.09Z" fill="#424B52"/>
<path d="M74.9097 29.9732H64.1631V102.649H74.9097V29.9732Z" fill="#77C613"/>
<path d="M70.337 6H68.7354V114.913H70.337V6Z" fill="#77C613"/>
<path d="M19.1494 125.89V144.218H16.8695V125.89H10.5264V123.756H25.4633V125.89H19.1494Z" fill="#6D6F71"/>
<path d="M34.5543 131.444H33.736C31.7483 131.444 30.2867 132.038 29.3513 133.227C28.4158 134.416 27.9483 135.994 27.9483 137.962V144.218H25.8145V129.602H27.3343L27.5389 133.548C28.0842 132.185 28.9322 131.151 30.0821 130.45C31.2316 129.748 32.5959 129.398 34.1743 129.398H34.5543V131.444Z" fill="#6D6F71"/>
<path d="M50.3081 144.218H48.7879L48.7004 140.915C48.1349 141.967 47.3263 142.81 46.2741 143.443C45.2218 144.077 44.0528 144.393 42.7666 144.393C40.7007 144.393 38.9665 143.667 37.5635 142.215C36.1605 140.764 35.459 138.995 35.459 136.91C35.459 134.825 36.1605 133.051 37.5635 131.59C38.9665 130.128 40.7007 129.398 42.7666 129.398C44.0329 129.398 45.1972 129.714 46.2596 130.348C47.3213 130.981 48.1349 131.824 48.7004 132.876L48.7879 129.602H50.3081V144.218ZM39.1274 140.798C40.1695 141.831 41.4315 142.347 42.9126 142.347C44.3934 142.347 45.6604 141.831 46.7127 140.798C47.7649 139.765 48.2911 138.469 48.2911 136.91C48.2911 135.351 47.7649 134.05 46.7127 133.008C45.6604 131.965 44.3934 131.444 42.9126 131.444C41.4511 131.444 40.1941 131.965 39.1419 133.008C38.0896 134.05 37.5635 135.351 37.5635 136.91C37.5635 138.469 38.0846 139.765 39.1274 140.798Z" fill="#6D6F71"/>
<path d="M67.729 144.218H66.2088L66.1213 140.915C65.5558 141.967 64.7472 142.811 63.695 143.443C62.6427 144.077 61.4737 144.394 60.1875 144.394C58.1216 144.394 56.3874 143.668 54.9844 142.215C53.5814 140.764 52.8799 138.996 52.8799 136.91C52.8799 134.825 53.5814 133.052 54.9844 131.59C56.3874 130.128 58.1216 129.398 60.1875 129.398C61.3565 129.398 62.4236 129.686 63.388 130.26C64.3527 130.835 65.098 131.61 65.6241 132.584V123.756H67.729V144.218ZM56.5483 140.798C57.5904 141.831 58.8524 142.347 60.3335 142.347C61.8143 142.347 63.0813 141.831 64.1336 140.798C65.1858 139.765 65.712 138.469 65.712 136.91C65.712 135.351 65.1858 134.05 64.1336 133.008C63.0813 131.965 61.8143 131.444 60.3335 131.444C58.872 131.444 57.615 131.965 56.5628 133.008C55.5105 134.05 54.9844 135.351 54.9844 136.91C54.9844 138.469 55.5055 139.765 56.5483 140.798Z" fill="#6D6F71"/>
<path d="M77.7251 129.398C79.3035 129.398 80.6577 129.777 81.7881 130.537C82.9181 131.298 83.7563 132.34 84.3019 133.665C84.5359 134.231 84.6769 134.883 84.7261 135.624C84.7742 136.364 84.721 136.959 84.5652 137.407H72.4639C72.4639 138.946 72.9752 140.169 73.9985 141.075C75.0215 141.981 76.3413 142.444 77.9591 142.464C79.8101 142.464 81.4959 141.937 83.0161 140.885L84.1558 142.172C82.2654 143.653 80.1999 144.393 77.9591 144.393C75.6984 144.373 73.8568 143.672 72.4346 142.288C71.0117 140.905 70.3008 139.112 70.3008 136.91C70.3008 134.786 70.9875 133.003 72.3615 131.561C73.7353 130.119 75.523 129.398 77.7251 129.398ZM77.7251 131.356C76.2827 131.356 75.0797 131.805 74.1153 132.701C73.1505 133.597 72.6291 134.689 72.5514 135.975H82.636C82.6747 135.468 82.5673 134.913 82.3146 134.308C81.9439 133.412 81.3592 132.696 80.5605 132.16C79.7613 131.624 78.8165 131.356 77.7251 131.356Z" fill="#6D6F71"/>
<path d="M101.695 125.89V144.218H99.4155V125.89H93.0723V123.756H108.009V125.89H101.695Z" fill="#6D6F71"/>
<path d="M117.713 129.398C119.701 129.398 121.255 130.012 122.376 131.239C123.496 132.467 124.057 134.173 124.057 136.355V144.218H121.952V136.443C121.952 134.767 121.547 133.515 120.739 132.686C119.93 131.858 118.824 131.444 117.421 131.444C115.882 131.444 114.659 131.951 113.753 132.964C112.847 133.977 112.394 135.41 112.394 137.261V144.218H110.26V123.756H112.394V132.555C112.9 131.484 113.645 130.689 114.63 130.173C115.614 129.656 116.642 129.398 117.713 129.398Z" fill="#6D6F71"/>
<path d="M133.907 129.398C135.485 129.398 136.839 129.777 137.97 130.537C139.1 131.298 139.938 132.34 140.484 133.665C140.718 134.231 140.859 134.883 140.908 135.624C140.956 136.364 140.903 136.959 140.747 137.407H128.646C128.646 138.946 129.157 140.169 130.18 141.075C131.203 141.981 132.523 142.444 134.141 142.464C135.992 142.464 137.678 141.937 139.198 140.885L140.337 142.172C138.447 143.653 136.382 144.393 134.141 144.393C131.88 144.373 130.038 143.672 128.616 142.288C127.193 140.905 126.482 139.112 126.482 136.91C126.482 134.786 127.169 133.003 128.543 131.561C129.917 130.119 131.705 129.398 133.907 129.398ZM133.907 131.356C132.464 131.356 131.261 131.805 130.297 132.701C129.332 133.597 128.811 134.689 128.733 135.975H138.818C138.856 135.468 138.749 134.913 138.496 134.308C138.126 133.412 137.541 132.696 136.742 132.16C135.943 131.624 134.998 131.356 133.907 131.356Z" fill="#6D6F71"/>
<path d="M151.211 123.756H157.642C160.564 123.756 163.03 124.712 165.037 126.621C167.044 128.531 168.047 130.986 168.047 133.987C168.047 136.988 167.049 139.444 165.051 141.353C163.054 143.263 160.584 144.218 157.642 144.218H151.211V123.756ZM153.491 142.084H157.642C159.98 142.084 161.919 141.353 163.459 139.892C164.998 138.43 165.768 136.462 165.768 133.987C165.768 131.513 164.998 129.544 163.459 128.082C161.919 126.621 159.98 125.89 157.642 125.89H153.491V142.084Z" fill="#6D6F71"/>
<path d="M173.191 127.44C172.938 127.673 172.625 127.79 172.256 127.79C171.886 127.79 171.573 127.673 171.32 127.44C171.067 127.206 170.94 126.923 170.94 126.592C170.94 126.261 171.067 125.978 171.32 125.744C171.573 125.51 171.886 125.394 172.256 125.394C172.625 125.394 172.938 125.51 173.191 125.744C173.444 125.978 173.571 126.261 173.571 126.592C173.571 126.923 173.444 127.206 173.191 127.44ZM171.174 144.218V129.603H173.308V144.218H171.174Z" fill="#6D6F71"/>
<path d="M184.446 123.61V125.51H184.154C181.64 125.51 180.383 126.67 180.383 128.989V129.603H184.446V131.62H180.354V144.218H178.249V131.62H176.115V129.603H178.278V128.93C178.278 127.099 178.829 125.72 179.93 124.794C181.031 123.869 182.41 123.464 184.066 123.581L184.446 123.61Z" fill="#6D6F71"/>
<path d="M194.091 123.61V125.51H193.798C191.284 125.51 190.027 126.67 190.027 128.989V129.603H194.091V131.62H189.998V144.218H187.894V131.62H185.76V129.603H187.923V128.93C187.923 127.099 188.473 125.72 189.575 124.794C190.675 123.869 192.054 123.464 193.711 123.581L194.091 123.61Z" fill="#6D6F71"/>
<path d="M202.832 129.398C204.41 129.398 205.765 129.777 206.895 130.537C208.025 131.298 208.863 132.34 209.409 133.665C209.643 134.231 209.784 134.883 209.833 135.624C209.881 136.364 209.828 136.959 209.672 137.407H197.57C197.57 138.946 198.082 140.169 199.105 141.075C200.128 141.981 201.448 142.444 203.066 142.464C204.917 142.464 206.603 141.937 208.123 140.885L209.263 142.172C207.373 143.653 205.306 144.393 203.066 144.393C200.805 144.373 198.963 143.672 197.541 142.288C196.119 140.905 195.407 139.112 195.407 136.91C195.407 134.786 196.094 133.003 197.468 131.561C198.842 130.119 200.629 129.398 202.832 129.398ZM202.832 131.356C201.39 131.356 200.187 131.805 199.222 132.701C198.257 133.597 197.736 134.689 197.659 135.975H207.743C207.782 135.468 207.674 134.913 207.421 134.308C207.051 133.412 206.466 132.696 205.667 132.16C204.868 131.624 203.923 131.356 202.832 131.356Z" fill="#6D6F71"/>
<path d="M220.984 131.444H220.165C218.178 131.444 216.716 132.038 215.781 133.227C214.845 134.416 214.378 135.994 214.378 137.962V144.218H212.244V129.602H213.764L213.969 133.548C214.514 132.185 215.362 131.152 216.512 130.45C217.662 129.749 219.026 129.398 220.604 129.398H220.984V131.444Z" fill="#6D6F71"/>
<path d="M229.314 129.398C230.892 129.398 232.246 129.777 233.377 130.537C234.506 131.298 235.345 132.34 235.891 133.665C236.124 134.231 236.265 134.883 236.314 135.624C236.363 136.364 236.309 136.959 236.153 137.407H224.052C224.052 138.946 224.564 140.169 225.586 141.075C226.61 141.981 227.93 142.444 229.547 142.464C231.399 142.464 233.085 141.937 234.604 140.885L235.744 142.172C233.854 143.653 231.788 144.393 229.547 144.393C227.287 144.373 225.445 143.672 224.023 142.288C222.6 140.905 221.889 139.112 221.889 136.91C221.889 134.786 222.576 133.003 223.95 131.561C225.324 130.119 227.111 129.398 229.314 129.398ZM229.314 131.356C227.871 131.356 226.668 131.805 225.704 132.701C224.739 133.597 224.217 134.689 224.14 135.975H234.224C234.263 135.468 234.156 134.913 233.902 134.308C233.532 133.412 232.948 132.696 232.149 132.16C231.35 131.624 230.404 131.356 229.314 131.356Z" fill="#6D6F71"/>
<path d="M246.179 129.398C248.166 129.398 249.719 130.012 250.84 131.239C251.961 132.467 252.521 134.172 252.521 136.354V144.218H250.417V136.442C250.417 134.767 250.012 133.515 249.204 132.686C248.395 131.858 247.289 131.444 245.886 131.444C244.346 131.444 243.124 131.951 242.218 132.964C241.311 133.977 240.858 135.41 240.858 137.26V144.218H238.725V129.602H240.245L240.361 132.935C240.907 131.746 241.706 130.859 242.759 130.274C243.811 129.69 244.951 129.398 246.179 129.398Z" fill="#6D6F71"/>
<path d="M262.431 129.398C264.77 129.398 266.689 130.304 268.19 132.116L266.903 133.49C265.657 132.126 264.165 131.444 262.431 131.444C260.95 131.444 259.688 131.965 258.646 133.008C257.603 134.05 257.082 135.351 257.082 136.91C257.082 138.469 257.603 139.765 258.646 140.798C259.688 141.831 260.95 142.347 262.431 142.347C264.186 142.347 265.676 141.675 266.903 140.33L268.19 141.704C266.689 143.497 264.77 144.393 262.431 144.393C260.346 144.393 258.578 143.662 257.127 142.201C255.674 140.739 254.948 138.976 254.948 136.91C254.948 134.825 255.679 133.051 257.141 131.59C258.603 130.128 260.366 129.398 262.431 129.398Z" fill="#6D6F71"/>
<path d="M277.163 129.398C278.741 129.398 280.096 129.777 281.226 130.537C282.356 131.298 283.194 132.34 283.74 133.665C283.974 134.231 284.115 134.883 284.164 135.624C284.212 136.364 284.159 136.959 284.003 137.407H271.901C271.901 138.946 272.413 140.169 273.436 141.075C274.459 141.981 275.779 142.444 277.397 142.464C279.248 142.464 280.934 141.937 282.454 140.885L283.594 142.172C281.704 143.653 279.637 144.393 277.397 144.393C275.136 144.373 273.294 143.672 271.872 142.288C270.45 140.905 269.738 139.112 269.738 136.91C269.738 134.786 270.425 133.003 271.799 131.561C273.173 130.119 274.961 129.398 277.163 129.398ZM277.163 131.356C275.721 131.356 274.518 131.805 273.553 132.701C272.588 133.597 272.067 134.689 271.99 135.975H282.074C282.113 135.468 282.005 134.913 281.752 134.308C281.382 133.412 280.797 132.696 279.998 132.16C279.199 131.624 278.254 131.356 277.163 131.356Z" fill="#6D6F71"/>
</g>
<defs>
<clipPath id="clip0_164_3467">
<rect width="295" height="146" fill="white"/>
</clipPath>
</defs>
</svg>
